<svg width="159" height="30" viewBox="0 0 159 30" xmlns="http://www.w3.org/2000/svg"><title>Logotype</title><defs><linearGradient x1="60%" y1="-40%" x2="40%" y2="140%" id="logotype_dark-a"><stop stop-color="#FFC369" offset="0%"/><stop stop-color="#FF7A56" offset="100%"/></linearGradient></defs><g fill="none" fill-rule="evenodd"><path d="M58.6 6v18h-3.12L46.9 13.043V24H43V6h3.9l7.8 10.957V6h3.9zm3.12 0h11.7v3.13h-7.8v3.913h5.46v3.13h-5.46v4.697h7.8V24h-11.7V6zm19.5 3.13h-4.68V6H89.8v3.13h-4.68V24h-3.9V9.13zm10.92 5.909C92.14 9.013 94.983 6 100.668 6c1.75 0 3.588.423 5.512 1.27v3.65c-1.664-1.104-3.31-1.657-4.94-1.657-1.595 0-2.786.445-3.575 1.334-.789.89-1.183 2.37-1.183 4.442s.403 3.54 1.209 4.403c.806.863 2.05 1.295 3.731 1.295.693 0 1.447-.13 2.262-.389s1.647-.665 2.496-1.217v3.652c-.71.362-1.577.656-2.6.88a13.598 13.598 0 0 1-2.912.337c-5.685 0-8.528-2.987-8.528-8.961zm19.427 6.705C110.056 20.239 109.3 17.99 109.3 15c0-2.94.742-5.174 2.227-6.705 1.485-1.53 3.598-2.295 6.34-2.295 2.688 0 4.793.748 6.313 2.244 1.52 1.495 2.28 3.739 2.28 6.73 0 2.94-.742 5.179-2.227 6.718-1.485 1.539-3.607 2.308-6.366 2.308-2.689 0-4.789-.752-6.3-2.256zm9.812-2.243c.787-.912 1.181-2.417 1.181-4.515s-.389-3.598-1.166-4.501c-.778-.903-1.954-1.355-3.529-1.355-1.555 0-2.721.456-3.499 1.369-.777.912-1.166 2.426-1.166 4.542 0 2.08.389 3.571 1.166 4.474.778.903 1.944 1.355 3.5 1.355 1.554 0 2.726-.456 3.513-1.369zM139.824 24l-3.432-6.207-2.912-.054V24h-3.9V6h8.45c1.993 0 3.536.477 4.628 1.43 1.092.954 1.638 2.375 1.638 4.264a6.02 6.02 0 0 1-.936 3.252c-.624.999-1.49 1.669-2.6 2.01L145.18 24h-5.356zm-.104-12.201c0-.87-.2-1.533-.6-1.987-.4-.454-.98-.682-1.743-.682h-3.897v5.479h3.706c1.69 0 2.534-.937 2.534-2.81zM147.3 6H159v3.13h-7.8v3.913h5.46v3.13h-5.46v4.697h7.8V24h-11.7V6zM0 18v8c0 2.465 1.535 4 4 4h8v-4H4v-8H0zM17 0v4h8v8h4V4c0-2.465-1.535-4-4-4h-8z" fill="#161921"/><path d="M2.55 5.07L27.45 30c1.4-1.4 1.4-3.67 0-5.07L2.55 0a3.588 3.588 0 0 0 0 5.07z" fill="url(#logotype_dark-a)"/></g></svg>